<?xml version="1.0" encoding="UTF-8" standalone="no"?>
<!DOCTYPE svg PUBLIC "-//W3C//DTD SVG 1.1//EN" "http://www.w3.org/Graphics/SVG/1.1/DTD/svg11.dtd">
<svg version="1.1" xmlns="http://www.w3.org/2000/svg" xmlns:xlink="http://www.w3.org/1999/xlink" preserveAspectRatio="xMidYMid meet" viewBox="0 0 512 512" width="512" height="512"><defs><path d="M159.23 57C156.53 57.18 154.83 57.3 154.16 57.35C125.78 59.31 100.98 77.24 90.22 103.57C89.92 104.3 89.18 106.11 88 109.01L88 487L107.8 487C110.71 482.63 112.53 479.9 113.26 478.8C124.02 462.66 141.57 452.32 160.91 450.73C160.91 450.73 154.29 451.27 160.29 450.78C160.29 450.78 161.55 450.73 161.55 450.73C196.05 450.73 282.3 450.73 420.31 450.73L420.31 57L159.23 57Z" id="bh2B83v5l"></path><path d="M160.31 71.52C156.04 72.25 153.38 72.71 152.31 72.89C130.36 76.66 111.6 90.83 101.96 110.9C101.96 110.9 101.96 110.9 101.96 110.9L102.44 466.18C106.77 460.77 109.47 457.38 110.55 456.03C122.63 440.89 140.94 432.08 160.3 432.08C160.3 432.08 160.3 432.08 160.31 432.08L394.8 432.08L394.8 71.52L160.31 71.52Z" id="h4pQYOtgL"></path><path d="M160.66 333.33L347.64 333.33L347.64 357.32L160.66 357.32L160.66 333.33Z" id="e1r8aXC0Ci"></path><path d="M160.66 368.56L347.64 368.56L347.64 392.55L160.66 392.55L160.66 368.56Z" id="g36DAiAd60"></path><path d="M160.91 185.41L347.9 185.41L347.9 209.39L160.91 209.39L160.91 185.41Z" id="f20OqnIAg7"></path><path d="M160.91 109.01L347.9 109.01L347.9 132.99L160.91 132.99L160.91 109.01Z" id="bEwALrDkR"></path><path d="M160.91 221.58L347.9 221.58L347.9 245.57L160.91 245.57L160.91 221.58Z" id="f3wyOreiSM"></path><path d="M160.91 254.9L347.9 254.9L347.9 278.89L160.91 278.89L160.91 254.9Z" id="cHnnNi8o2"></path><path d="M160.91 291.07L347.9 291.07L347.9 315.06L160.91 315.06L160.91 291.07Z" id="a64wmZ52Tp"></path><path d="M160.91 144.24L347.9 144.24L347.9 168.22L160.91 168.22L160.91 144.24Z" id="f2UJ2mvYx"></path><path d="M318.46 255.49C310.5 248.11 316.06 239.39 316.06 239.39C316.06 239.39 314.05 235.65 317.3 231.82C319.29 229.48 325.71 220.99 331.32 212.07C346.16 211.38 359.9 214.27 371.86 221.3C380.24 226.23 387.25 232.93 393 241.06C390.95 248.55 388.33 259.52 387.65 261.43C386.69 264.11 384.2 267.76 381.89 268.23C379.59 268.71 378.25 270.92 378.25 270.92C375.28 276.95 365.99 277.33 365.99 277.33C365.99 277.33 374.05 263.64 348.93 253.29C323.82 242.94 324.55 255.05 318.46 255.49Z" id="b1II7bTgjJ"></path><radialGradient id="gradientc2eOjKcyNx" gradientUnits="userSpaceOnUse" cx="349.01" cy="252.2" r="66.96"><stop style="stop-color: #82768d;stop-opacity: 1" offset="0%"></stop><stop style="stop-color: #000000;stop-opacity: 1" offset="100%"></stop></radialGradient><path d="M397.55 229.53C397.09 230.58 396.35 233.06 395.52 236.09C389.78 227.97 382.76 221.25 374.39 216.33C362.43 209.3 348.68 206.41 333.85 207.1C337.43 201.41 340.69 195.56 342.26 191C346.28 179.31 360.87 131.05 369.4 110.45C377.93 89.84 410.42 104.5 429.3 115.24C448.18 125.97 449.24 139.2 447.32 142.84C445.4 146.48 433.11 169.06 421.32 186.88C409.54 204.7 399.19 225.89 397.55 229.53Z" id="a2vovlA3o"></path><path d="M273.29 391.88C277.42 366.58 277.84 361.09 275.92 348.44C274 335.79 275.92 334.63 275.92 334.63C295.47 307.8 319.22 257.12 319.22 257.12C322.39 251.85 334.94 249.62 350.47 256.54C366.57 263.73 365.42 273.6 365.42 273.6C362.69 281.65 340.83 346.08 338.1 354.13C337.14 356.72 332.73 357.96 332.73 357.96C307.14 365.34 286.28 391.2 283.5 395.22C280.72 399.25 278.71 397.72 278.71 397.72C281.69 391.03 305.57 337.56 308.55 330.88C310.83 330.35 313.16 328.37 314.52 325.44C316.5 321.18 315.72 316.63 312.77 315.25C309.82 313.88 305.82 316.21 303.84 320.47C302.35 323.67 302.43 327.04 303.82 329.1C300.97 335.53 279.64 387.61 275.99 393.33C272.34 399.06 273.29 391.88 273.29 391.88Z" id="a88y9reu0"></path></defs><g><g><use xlink:href="#bh2B83v5l" opacity="1" fill="#ffffff" fill-opacity="1"></use><g><use xlink:href="#bh2B83v5l" opacity="1" fill-opacity="0" stroke="#38393a" stroke-width="7" stroke-opacity="1"></use></g></g><g><use xlink:href="#h4pQYOtgL" opacity="1" fill="#ffffff" fill-opacity="1"></use><g><use xlink:href="#h4pQYOtgL" opacity="1" fill-opacity="0" stroke="#38393a" stroke-width="5" stroke-opacity="1"></use></g></g><g><use xlink:href="#e1r8aXC0Ci" opacity="1" fill="#38393a" fill-opacity="1"></use></g><g><use xlink:href="#g36DAiAd60" opacity="1" fill="#38393a" fill-opacity="1"></use></g><g><use xlink:href="#f20OqnIAg7" opacity="1" fill="#f05440" fill-opacity="1"></use></g><g><use xlink:href="#bEwALrDkR" opacity="1" fill="#38393a" fill-opacity="1"></use></g><g><use xlink:href="#f3wyOreiSM" opacity="1" fill="#f05440" fill-opacity="1"></use></g><g><use xlink:href="#cHnnNi8o2" opacity="1" fill="#08a808" fill-opacity="1"></use></g><g><use xlink:href="#a64wmZ52Tp" opacity="1" fill="#08a808" fill-opacity="1"></use></g><g><use xlink:href="#f2UJ2mvYx" opacity="1" fill="#38393a" fill-opacity="1"></use></g><g><use xlink:href="#b1II7bTgjJ" opacity="1" fill="url(#gradientc2eOjKcyNx)"></use><g><use xlink:href="#b1II7bTgjJ" opacity="1" fill-opacity="0" stroke="#000000" stroke-width="1" stroke-opacity="0"></use></g></g><g><use xlink:href="#a2vovlA3o" opacity="1" fill="#010002" fill-opacity="1"></use><g><use xlink:href="#a2vovlA3o" opacity="1" fill-opacity="0" stroke="#000000" stroke-width="1" stroke-opacity="0"></use></g></g><g><use xlink:href="#a88y9reu0" opacity="1" fill="#ffd700" fill-opacity="1"></use><g><use xlink:href="#a88y9reu0" opacity="1" fill-opacity="0" stroke="#998200" stroke-width="3" stroke-opacity="1"></use></g></g></g></svg>