<?xml version="1.0" encoding="UTF-8" standalone="no"?>
<!DOCTYPE svg PUBLIC "-//W3C//DTD SVG 1.1//EN" "http://www.w3.org/Graphics/SVG/1.1/DTD/svg11.dtd">
<svg version="1.1" xmlns="http://www.w3.org/2000/svg" xmlns:xlink="http://www.w3.org/1999/xlink" preserveAspectRatio="xMidYMid meet" viewBox="0 0 512 512" width="512" height="512"><defs><path d="M376.6 117.71L376.6 372.1L188.91 372.1C185.05 372.1 182.63 372.1 181.66 372.1C156.36 372.1 132.71 384.69 118.59 405.69C117.71 406.99 115.51 410.25 112 415.48L112 448.15L133.83 448.15C133.98 445.89 134.08 444.48 134.11 443.91C135.66 421.17 152.43 402.37 174.84 398.23C177.27 397.78 175.92 398.03 185.71 396.22C186.54 396.07 187.39 395.99 188.23 395.99C216.47 395.99 287.06 395.99 400 395.99L400 117.71L376.6 117.71Z" id="a2Ds2QJhaY"></path><path d="M168.92 64C165.51 64.59 163.38 64.96 162.52 65.1C144.96 68.12 129.94 79.46 122.22 95.53C122.22 95.53 122.22 95.53 122.22 95.53L122.61 379.9C122.61 379.9 122.61 379.9 122.61 379.9C130.72 366.51 143.98 357.04 159.28 353.74C159.99 353.59 161.74 353.21 164.54 352.6L356.61 352.6L356.61 64L168.92 64Z" id="a1jcqvndVC"></path><path d="" id="a3Ar2LF6a"></path><path d="M169.41 202.94L169.41 192.79L294.67 192.79L294.67 202.94L169.41 202.94ZM169.41 184.56L169.41 174.41L294.67 174.41L294.67 184.56L169.41 184.56ZM169.41 165.7L169.41 155.54L294.67 155.54L294.67 165.7L169.41 165.7Z" id="b2IfnKHuV3"></path><path d="M169.41 258.57L169.41 248.41L294.67 248.41L294.67 258.57L169.41 258.57ZM169.41 240.19L169.41 230.03L294.67 230.03L294.67 240.19L169.41 240.19ZM169.41 221.32L169.41 211.17L298.73 211.17L298.73 221.32L169.41 221.32Z" id="b8u1NOUiO"></path><path d="M169.41 141.41L169.41 131.26L304.84 131.26L304.84 141.41L169.41 141.41ZM169.41 123.03L169.41 112.88L319.07 112.88L319.07 123.03L169.41 123.03ZM169.41 104.17L169.41 94.01L319.07 94.01L319.07 104.17L169.41 104.17Z" id="a3H4tMgckW"></path><path d="M169.41 320.97L169.41 310.81L319.07 310.81L319.07 320.97L169.41 320.97ZM169.41 302.59L169.41 292.43L319.07 292.43L319.07 302.59L169.41 302.59ZM169.41 283.72L169.41 273.57L311.62 273.57L311.62 283.72L169.41 283.72Z" id="fQQoEhFo"></path><path d="M342.61 139.7L342.73 139.71L342.84 139.73L342.96 139.75L343.07 139.77L343.19 139.8L343.3 139.84L343.41 139.88L343.51 139.92L343.62 139.96L343.73 140.01L343.83 140.07L343.93 140.13L344.03 140.19L344.13 140.26L344.22 140.33L344.31 140.4L344.4 140.48L344.49 140.56L344.57 140.65L344.65 140.74L344.73 140.83L344.8 140.93L344.87 141.03L344.94 141.13L345 141.24L345.06 141.35L345.59 142.43L346.09 143.51L346.56 144.58L347 145.64L347.41 146.68L347.79 147.72L348.14 148.74L348.47 149.75L348.77 150.75L349.04 151.74L349.29 152.71L349.52 153.66L349.73 154.6L349.91 155.52L350.08 156.42L350.23 157.3L350.36 158.17L350.47 159.01L350.57 159.84L350.65 160.64L350.72 161.42L350.78 162.18L350.83 162.91L350.87 163.62L350.89 164.3L350.91 164.96L350.93 165.6L350.93 166.2L350.93 166.78L350.93 167.32L350.93 167.84L350.92 168.33L350.91 168.79L350.9 169.21L350.9 169.61L350.89 169.97L350.89 170.29L350.89 170.59L350.9 170.84L350.92 171.06L350.91 171.22L350.91 171.37L350.89 171.51L350.87 171.65L350.84 171.78L350.81 171.91L350.77 172.04L350.72 172.17L350.66 172.3L350.59 172.43L350.51 172.56L350.43 172.7L350.33 172.83L350.22 172.98L350.1 173.13L349.97 173.28L349.83 173.44L349.67 173.61L349.5 173.79L349.32 173.98L349.12 174.18L348.91 174.39L348.69 174.62L348.45 174.86L348.19 175.11L347.92 175.38L347.63 175.67L347.33 175.98L347.01 176.3L346.67 176.64L346.31 177L345.93 177.39L345.53 177.79L345.12 178.22L344.68 178.67L344.23 179.15L343.75 179.65L343.25 180.18L342.73 180.74L342.19 181.33L342.02 181.51L341.87 181.69L341.72 181.88L341.58 182.07L341.46 182.27L341.34 182.47L341.23 182.67L341.13 182.88L341.04 183.09L340.96 183.3L340.89 183.51L340.82 183.73L340.77 183.95L340.72 184.17L340.69 184.39L340.66 184.61L340.64 184.84L340.63 185.06L340.63 185.28L340.64 185.51L340.66 185.73L340.69 185.95L340.72 186.17L340.77 186.39L340.82 186.61L340.88 186.82L340.95 187.04L341.03 187.25L341.12 187.45L341.22 187.66L341.32 187.86L341.44 188.06L341.56 188.25L341.69 188.44L341.83 188.62L341.98 188.8L342.14 188.98L342.31 189.14L342.48 189.31L342.66 189.46L349.81 195.31L349.86 195.35L349.91 195.4L349.96 195.44L350.01 195.49L350.06 195.54L350.1 195.58L350.15 195.63L350.19 195.68L350.23 195.74L350.28 195.79L350.32 195.84L350.36 195.9L350.39 195.95L350.43 196.01L350.47 196.06L350.5 196.12L350.53 196.18L350.57 196.24L350.6 196.29L350.63 196.35L350.65 196.42L350.68 196.48L350.71 196.54L350.73 196.6L350.75 196.66L350.77 196.73L350.79 196.79L350.81 196.85L350.83 196.92L350.84 196.98L350.86 197.05L350.87 197.11L350.88 197.18L350.89 197.25L350.9 197.31L350.91 197.38L350.91 197.45L350.92 197.52L350.92 197.58L350.92 197.65L350.92 242.69L350.91 243.27L350.9 243.85L350.88 244.42L350.85 245L350.81 245.57L350.76 246.15L350.7 246.72L350.63 247.29L350.55 247.86L350.47 248.42L350.38 248.99L350.27 249.55L350.16 250.11L350.04 250.66L349.91 251.22L349.78 251.77L349.63 252.32L349.47 252.87L349.31 253.41L349.14 253.95L348.96 254.49L348.77 255.03L348.57 255.56L348.37 256.09L348.15 256.62L347.93 257.14L347.7 257.66L347.46 258.18L347.21 258.69L346.95 259.2L346.69 259.71L346.41 260.21L346.13 260.71L345.84 261.21L345.55 261.7L345.24 262.19L344.93 262.67L344.6 263.15L344.27 263.63L343.93 264.1L323.94 291.5L323.94 299.28L337.21 285.9L337.3 285.82L337.39 285.73L337.48 285.65L337.58 285.58L337.68 285.51L337.78 285.45L337.88 285.39L337.99 285.33L338.1 285.28L338.21 285.23L338.32 285.19L338.43 285.15L338.54 285.12L338.65 285.09L338.77 285.06L338.88 285.04L339 285.03L339.11 285.02L339.23 285.01L339.34 285.01L339.46 285.01L339.58 285.01L339.69 285.02L339.81 285.04L339.92 285.06L340.04 285.08L340.15 285.11L340.26 285.14L340.38 285.18L340.49 285.22L340.59 285.27L340.7 285.32L340.81 285.38L340.91 285.43L341.01 285.5L341.11 285.57L341.21 285.64L341.31 285.72L341.4 285.8L341.49 285.89L341.58 285.98L341.66 286.07L341.74 286.16L341.81 286.26L341.88 286.36L341.95 286.46L342.01 286.56L342.06 286.67L342.11 286.78L342.16 286.89L342.2 286.99L342.24 287.11L342.28 287.22L342.3 287.33L342.33 287.45L342.35 287.56L342.37 287.68L342.38 287.79L342.38 287.91L342.39 288.02L342.39 288.14L342.38 288.26L342.37 288.37L342.35 288.49L342.33 288.6L342.31 288.72L342.28 288.83L342.25 288.94L342.21 289.06L342.17 289.17L342.12 289.27L342.07 289.38L342.02 289.49L341.96 289.59L341.89 289.69L341.83 289.79L341.75 289.89L341.68 289.99L341.59 290.08L341.51 290.17L323.94 307.88L323.94 317.94L323.93 318.06L323.93 318.18L323.91 318.31L323.9 318.43L323.87 318.55L323.85 318.66L323.82 318.78L323.78 318.89L323.74 319L323.7 319.11L323.65 319.22L323.6 319.33L323.54 319.43L323.48 319.53L323.42 319.63L323.35 319.72L323.28 319.82L323.21 319.91L323.13 319.99L323.05 320.08L322.96 320.16L322.88 320.24L322.79 320.31L322.7 320.38L322.6 320.45L322.5 320.51L322.4 320.57L322.3 320.63L322.19 320.68L322.09 320.73L321.98 320.77L321.86 320.81L321.75 320.85L321.63 320.88L321.52 320.9L321.4 320.93L321.28 320.94L321.15 320.96L321.03 320.96L320.91 320.97L320.78 320.96L320.66 320.96L320.54 320.94L320.41 320.93L320.3 320.9L320.18 320.88L320.06 320.85L319.95 320.81L319.84 320.77L319.73 320.73L319.62 320.68L319.51 320.63L319.41 320.57L319.31 320.51L319.21 320.45L319.12 320.38L319.02 320.31L318.93 320.24L318.85 320.16L318.76 320.08L318.68 319.99L318.61 319.91L318.53 319.82L318.46 319.72L318.39 319.63L318.33 319.53L318.27 319.43L318.21 319.33L318.16 319.22L318.11 319.11L318.07 319L318.03 318.89L317.99 318.78L317.96 318.66L317.94 318.55L317.92 318.43L317.9 318.31L317.89 318.18L317.88 318.06L317.88 317.94L317.88 307.91L300.89 291.57L300.8 291.48L300.72 291.39L300.64 291.29L300.57 291.2L300.5 291.1L300.43 291L300.37 290.9L300.31 290.79L300.26 290.68L300.21 290.58L300.16 290.47L300.12 290.36L300.09 290.25L300.06 290.13L300.03 290.02L300.01 289.9L299.99 289.79L299.98 289.67L299.97 289.56L299.96 289.44L299.96 289.32L299.97 289.21L299.98 289.09L299.99 288.98L300.01 288.86L300.03 288.75L300.06 288.63L300.09 288.52L300.12 288.41L300.16 288.3L300.21 288.19L300.26 288.08L300.31 287.97L300.37 287.87L300.43 287.76L300.5 287.66L300.57 287.56L300.65 287.47L300.73 287.37L300.81 287.28L300.9 287.19L300.99 287.11L301.08 287.03L301.18 286.96L301.28 286.88L301.38 286.82L301.48 286.76L301.59 286.7L301.69 286.65L301.8 286.6L301.91 286.55L302.02 286.51L302.13 286.48L302.24 286.45L302.36 286.42L302.47 286.4L302.59 286.38L302.7 286.37L302.82 286.36L302.94 286.35L303.05 286.35L303.17 286.36L303.28 286.37L303.4 286.38L303.52 286.4L303.63 286.42L303.74 286.45L303.86 286.48L303.97 286.51L304.08 286.55L304.19 286.6L304.3 286.65L304.4 286.7L304.51 286.76L304.61 286.82L304.71 286.89L304.81 286.96L304.91 287.03L305 287.11L305.1 287.2L317.88 299.5L317.88 292.83L300.75 268.79L300.68 268.69L300.62 268.58L300.56 268.48L300.5 268.37L300.45 268.26L300.4 268.15L300.36 268.03L300.32 267.92L300.29 267.81L300.26 267.69L300.24 267.58L300.22 267.46L300.21 267.34L300.2 267.23L300.19 267.11L300.19 266.99L300.19 266.88L300.2 266.76L300.22 266.65L300.23 266.53L300.25 266.42L300.28 266.3L300.31 266.19L300.34 266.08L300.38 265.97L300.43 265.86L300.47 265.75L300.52 265.65L300.58 265.54L300.64 265.44L300.7 265.34L300.77 265.25L300.84 265.15L300.92 265.06L301 264.97L301.09 264.88L301.17 264.8L301.27 264.72L301.36 264.64L301.46 264.56L301.57 264.49L301.67 264.43L301.78 264.37L301.89 264.31L302 264.26L302.11 264.21L302.22 264.17L302.33 264.13L302.45 264.1L302.56 264.07L302.68 264.05L302.79 264.03L302.91 264.02L303.03 264.01L303.14 264L303.26 264L303.38 264.01L303.49 264.01L303.61 264.03L303.72 264.04L303.84 264.06L303.95 264.09L304.06 264.12L304.17 264.16L304.28 264.19L304.39 264.24L304.5 264.28L304.61 264.34L304.71 264.39L304.81 264.45L304.91 264.52L305.01 264.58L305.1 264.66L305.2 264.73L305.28 264.81L305.37 264.9L305.46 264.98L305.54 265.08L305.61 265.17L305.69 265.27L317.88 282.38L317.88 236.78L307.54 227.23L307.45 227.15L307.36 227.06L307.28 226.96L307.2 226.87L307.13 226.77L307.06 226.67L307 226.57L306.94 226.47L306.88 226.36L306.83 226.26L306.79 226.15L306.74 226.04L306.71 225.93L306.67 225.82L306.64 225.7L306.62 225.59L306.6 225.47L306.58 225.36L306.57 225.24L306.56 225.13L306.56 225.01L306.56 224.89L306.57 224.78L306.58 224.66L306.6 224.55L306.62 224.43L306.64 224.32L306.67 224.2L306.7 224.09L306.74 223.98L306.78 223.87L306.83 223.76L306.88 223.65L306.94 223.54L307 223.44L307.06 223.34L307.13 223.24L307.21 223.14L307.28 223.04L307.37 222.95L307.45 222.86L307.54 222.77L307.63 222.69L307.73 222.62L307.83 222.54L307.92 222.47L308.03 222.41L308.13 222.35L308.23 222.3L308.34 222.24L308.45 222.2L308.56 222.16L308.67 222.12L308.78 222.08L308.9 222.06L309.01 222.03L309.12 222.01L309.24 222L309.36 221.98L309.47 221.98L309.59 221.97L309.7 221.98L309.82 221.98L309.94 221.99L310.05 222.01L310.17 222.03L310.28 222.05L310.4 222.08L310.51 222.12L310.62 222.15L310.73 222.2L310.84 222.24L310.95 222.29L311.05 222.35L311.16 222.41L311.26 222.47L311.36 222.54L311.46 222.62L311.55 222.7L311.65 222.78L317.88 228.53L317.88 171.27L317.86 171.25L317.83 171.23L317.8 171.2L317.75 171.16L317.69 171.11L317.63 171.05L317.55 170.99L317.46 170.91L317.36 170.82L317.25 170.72L317.13 170.61L316.99 170.49L316.84 170.36L316.68 170.22L316.51 170.06L316.32 169.9L316.12 169.72L315.9 169.52L315.67 169.32L315.42 169.1L315.16 168.86L314.88 168.61L314.58 168.35L314.27 168.08L313.94 167.78L313.24 167.15L312.85 166.82L312.46 166.46L312.04 166.09L311.6 165.7L311.15 165.3L310.67 164.88L310.18 164.44L309.66 163.98L309.13 163.5L308.57 163.01L307.99 162.5L307.39 161.96L306.77 161.41L306.68 161.33L306.59 161.24L306.51 161.15L306.43 161.05L306.36 160.96L306.29 160.86L306.22 160.76L306.16 160.66L306.1 160.55L306.05 160.45L306 160.34L305.96 160.23L305.92 160.12L305.88 160.01L305.85 159.9L305.82 159.78L305.8 159.67L305.78 159.56L305.77 159.44L305.76 159.32L305.76 159.21L305.76 159.09L305.76 158.98L305.77 158.86L305.78 158.74L305.8 158.63L305.82 158.51L305.85 158.4L305.88 158.29L305.91 158.17L305.95 158.06L306 157.95L306.05 157.84L306.1 157.74L306.16 157.63L306.22 157.53L306.29 157.43L306.36 157.33L306.44 157.23L306.52 157.13L306.61 157.04L306.69 156.95L306.78 156.87L306.88 156.79L306.97 156.72L307.07 156.65L307.17 156.58L307.27 156.52L307.38 156.46L307.48 156.41L307.59 156.36L307.7 156.32L307.81 156.28L307.92 156.24L308.03 156.21L308.15 156.18L308.26 156.16L308.38 156.14L308.49 156.13L308.61 156.12L308.72 156.12L308.84 156.12L308.96 156.12L309.07 156.13L309.19 156.14L309.3 156.16L309.42 156.18L309.53 156.21L309.65 156.24L309.76 156.28L309.87 156.32L309.98 156.36L310.09 156.41L310.2 156.46L310.3 156.52L310.4 156.58L310.51 156.65L310.61 156.72L310.7 156.8L310.8 156.88L317.88 163.17L317.88 143.79L317.88 143.67L317.89 143.54L317.9 143.42L317.92 143.3L317.94 143.18L317.96 143.06L318 142.95L318.03 142.83L318.07 142.72L318.11 142.61L318.16 142.51L318.21 142.4L318.27 142.3L318.33 142.2L318.39 142.1L318.46 142L318.53 141.91L318.61 141.82L318.68 141.73L318.76 141.65L318.85 141.57L318.93 141.49L319.02 141.42L319.12 141.35L319.21 141.28L319.31 141.22L319.41 141.16L319.51 141.1L319.62 141.05L319.73 141L319.84 140.96L319.95 140.92L320.06 140.88L320.18 140.85L320.3 140.82L320.41 140.8L320.54 140.78L320.66 140.77L320.78 140.76L320.91 140.76L321.03 140.76L321.15 140.77L321.28 140.78L321.4 140.8L321.52 140.82L321.63 140.85L321.75 140.88L321.86 140.92L321.98 140.96L322.09 141L322.19 141.05L322.3 141.1L322.4 141.16L322.5 141.22L322.6 141.28L322.7 141.35L322.79 141.42L322.88 141.49L322.97 141.57L323.05 141.65L323.13 141.73L323.21 141.82L323.28 141.91L323.35 142L323.42 142.1L323.48 142.2L323.54 142.3L323.6 142.4L323.65 142.5L323.7 142.61L323.74 142.72L323.78 142.83L323.82 142.95L323.85 143.06L323.87 143.18L323.9 143.3L323.91 143.42L323.93 143.54L323.93 143.67L323.94 143.79L323.94 204.5L334.07 197.1L334.17 197.03L334.28 196.96L334.38 196.9L334.49 196.84L334.6 196.79L334.71 196.74L334.82 196.7L334.93 196.66L335.05 196.63L335.16 196.6L335.28 196.57L335.39 196.55L335.51 196.54L335.63 196.53L335.74 196.52L335.86 196.52L335.97 196.52L336.09 196.53L336.21 196.54L336.32 196.56L336.44 196.58L336.55 196.6L336.66 196.63L336.78 196.66L336.89 196.7L336.99 196.74L337.1 196.79L337.21 196.84L337.31 196.89L337.41 196.95L337.52 197.01L337.61 197.08L337.71 197.15L337.8 197.23L337.89 197.31L337.98 197.39L338.07 197.48L338.15 197.57L338.23 197.66L338.3 197.76L338.37 197.87L338.44 197.97L338.5 198.08L338.56 198.18L338.61 198.29L338.66 198.4L338.7 198.52L338.74 198.63L338.78 198.74L338.81 198.86L338.83 198.97L338.85 199.09L338.87 199.2L338.88 199.32L338.88 199.44L338.89 199.55L338.88 199.67L338.88 199.79L338.86 199.9L338.85 200.02L338.83 200.13L338.8 200.25L338.78 200.36L338.74 200.47L338.7 200.58L338.66 200.69L338.62 200.8L338.57 200.9L338.51 201.01L338.45 201.11L338.39 201.21L338.32 201.31L338.25 201.4L338.18 201.5L338.1 201.59L338.01 201.68L337.93 201.76L337.84 201.84L337.74 201.92L337.64 202L323.94 212L323.94 281.22L339.04 260.53L339.32 260.13L339.6 259.74L339.86 259.34L340.13 258.93L340.38 258.53L340.63 258.12L340.87 257.7L341.11 257.29L341.33 256.87L341.55 256.45L341.77 256.02L341.97 255.59L342.17 255.16L342.37 254.73L342.55 254.29L342.73 253.85L342.9 253.41L343.07 252.97L343.22 252.52L343.38 252.07L343.52 251.62L343.65 251.17L343.78 250.71L343.91 250.25L344.02 249.79L344.13 249.33L344.23 248.87L344.32 248.4L344.4 247.93L344.48 247.46L344.55 246.99L344.62 246.52L344.67 246.05L344.72 245.57L344.76 245.09L344.8 244.61L344.82 244.13L344.84 243.65L344.85 243.17L344.86 242.69L344.86 199.09L338.83 194.15L338.44 193.83L338.08 193.49L337.73 193.13L337.4 192.77L337.09 192.39L336.79 192.01L336.52 191.61L336.26 191.21L336.02 190.8L335.8 190.38L335.6 189.95L335.41 189.51L335.24 189.07L335.1 188.63L334.97 188.18L334.85 187.72L334.76 187.26L334.69 186.8L334.63 186.34L334.59 185.87L334.57 185.4L334.57 184.93L334.59 184.47L334.63 184L334.69 183.53L334.76 183.07L334.86 182.61L334.97 182.15L335.1 181.7L335.25 181.25L335.42 180.8L335.61 180.36L335.82 179.93L336.05 179.5L336.3 179.08L336.56 178.67L336.85 178.27L337.16 177.88L337.48 177.49L337.83 177.12L344.86 169.84L344.84 169.67L344.84 169.46L344.84 169.22L344.84 168.95L344.84 168.65L344.85 168.33L344.85 167.97L344.86 167.58L344.86 167.17L344.87 166.73L344.87 166.26L344.87 165.76L344.86 165.25L344.85 164.7L344.83 164.14L344.8 163.54L344.77 162.93L344.72 162.3L344.67 161.64L344.6 160.96L344.53 160.27L344.44 159.55L344.34 158.81L344.22 158.06L344.09 157.29L343.94 156.5L343.77 155.7L343.59 154.88L343.39 154.05L343.16 153.2L342.92 152.34L342.66 151.46L342.37 150.58L342.06 149.68L341.72 148.77L341.36 147.85L340.98 146.92L340.56 145.99L340.12 145.04L339.65 144.09L339.6 143.97L339.55 143.86L339.5 143.74L339.46 143.63L339.43 143.51L339.4 143.4L339.38 143.28L339.36 143.16L339.34 143.04L339.33 142.93L339.32 142.81L339.32 142.69L339.33 142.57L339.33 142.46L339.35 142.34L339.36 142.22L339.38 142.11L339.41 142L339.44 141.88L339.47 141.77L339.51 141.66L339.55 141.55L339.6 141.45L339.65 141.34L339.71 141.24L339.77 141.14L339.83 141.04L339.89 140.94L339.97 140.85L340.04 140.76L340.12 140.67L340.2 140.58L340.29 140.5L340.37 140.42L340.47 140.34L340.56 140.27L340.66 140.2L340.77 140.13L340.87 140.07L340.98 140.01L341.1 139.96L341.21 139.91L341.33 139.87L341.44 139.83L341.56 139.79L341.67 139.76L341.79 139.74L341.91 139.72L342.03 139.7L342.14 139.69L342.26 139.69L342.38 139.69L342.5 139.69L342.61 139.7ZM323.13 117.77L323.62 117.83L324.1 117.92L324.59 118.02L325.06 118.14L325.54 118.28L326.01 118.45L326.47 118.63L326.92 118.84L327.37 119.06L327.81 119.31L328.24 119.57L328.66 119.86L329.07 120.17L329.47 120.49L329.86 120.84L330.24 121.21L330.6 121.6L330.94 122.01L338.02 130.73L338.1 130.83L338.17 130.93L338.24 131.03L338.3 131.14L338.36 131.24L338.41 131.35L338.46 131.46L338.5 131.57L338.54 131.68L338.58 131.8L338.61 131.91L338.64 132.02L338.66 132.14L338.67 132.25L338.69 132.37L338.69 132.49L338.7 132.6L338.7 132.72L338.69 132.84L338.68 132.95L338.67 133.07L338.65 133.18L338.63 133.3L338.6 133.41L338.57 133.52L338.53 133.63L338.49 133.74L338.45 133.85L338.4 133.96L338.34 134.06L338.29 134.17L338.22 134.27L338.16 134.37L338.09 134.46L338.01 134.56L337.93 134.65L337.85 134.74L337.76 134.83L337.67 134.91L337.58 134.99L337.48 135.07L337.38 135.14L337.28 135.21L337.17 135.27L337.06 135.33L336.96 135.38L336.85 135.43L336.74 135.47L336.62 135.51L336.51 135.55L336.4 135.58L336.28 135.61L336.17 135.63L336.05 135.64L335.94 135.66L335.82 135.66L335.7 135.67L335.59 135.67L335.47 135.66L335.35 135.65L335.24 135.64L335.12 135.62L335.01 135.6L334.9 135.57L334.78 135.54L334.67 135.5L334.56 135.46L334.45 135.42L334.35 135.37L334.24 135.31L334.14 135.26L334.04 135.19L333.94 135.13L333.84 135.06L333.75 134.98L333.66 134.9L333.57 134.82L333.48 134.73L333.4 134.64L333.31 134.55L326.24 125.83L326.07 125.63L325.9 125.45L325.73 125.28L325.54 125.11L325.35 124.95L325.16 124.81L324.96 124.67L324.75 124.54L324.54 124.43L324.33 124.32L324.11 124.22L323.89 124.13L323.67 124.05L323.45 123.98L323.22 123.92L322.99 123.87L322.76 123.83L322.52 123.8L322.29 123.78L322.05 123.77L321.82 123.77L321.58 123.78L321.35 123.8L321.12 123.83L320.88 123.87L320.65 123.91L320.42 123.97L320.19 124.04L319.97 124.12L319.75 124.21L319.53 124.31L319.31 124.42L319.1 124.54L318.89 124.67L318.69 124.8L318.49 124.95L318.3 125.11L318.11 125.28L317.93 125.46L317.75 125.65L309.01 135.57L308.43 136.24L307.87 136.91L307.32 137.6L306.78 138.29L306.26 138.99L305.75 139.7L305.25 140.42L304.77 141.15L304.3 141.88L303.85 142.62L303.41 143.37L302.98 144.13L302.56 144.89L302.16 145.66L301.78 146.44L301.41 147.23L301.05 148.02L300.71 148.81L300.38 149.62L300.07 150.42L299.77 151.24L299.48 152.06L299.21 152.88L298.96 153.71L298.72 154.54L298.49 155.38L298.28 156.22L298.09 157.07L297.91 157.92L297.74 158.77L297.59 159.63L297.46 160.49L297.34 161.36L297.24 162.22L297.15 163.09L297.08 163.97L297.02 164.84L296.98 165.72L296.96 166.6L296.95 167.48L296.95 200.32L297.04 200.42L297.15 200.52L297.28 200.63L297.41 200.74L297.57 200.86L297.73 200.99L297.91 201.12L298.09 201.27L298.29 201.42L298.49 201.58L298.71 201.74L298.93 201.92L299.15 202.11L299.38 202.3L299.61 202.5L299.85 202.72L300.09 202.94L300.33 203.17L300.57 203.42L300.81 203.67L301.04 203.94L301.28 204.22L301.51 204.51L301.73 204.81L301.95 205.12L302.16 205.45L302.36 205.78L302.56 206.14L302.74 206.5L302.91 206.88L303.08 207.27L303.22 207.67L303.36 208.09L303.48 208.53L303.58 208.98L303.67 209.44L303.74 209.92L303.79 210.42L303.82 210.93L303.83 211.45L303.82 211.94L303.8 212.41L303.76 212.86L303.7 213.31L303.62 213.73L303.53 214.15L303.43 214.55L303.31 214.95L303.19 215.32L303.05 215.69L302.9 216.05L302.73 216.4L302.56 216.73L302.38 217.06L302.2 217.38L302 217.69L301.8 217.99L301.59 218.28L301.38 218.56L301.16 218.83L300.94 219.1L300.71 219.36L300.49 219.62L300.26 219.86L300.03 220.1L299.8 220.34L299.57 220.57L299.34 220.8L299.11 221.02L298.89 221.24L298.67 221.45L298.45 221.66L298.24 221.87L298.04 222.07L297.84 222.27L297.64 222.47L297.46 222.67L297.28 222.87L297.11 223.07L296.95 223.26L296.99 224.52L297.03 225.76L297.07 226.98L297.1 228.18L297.14 229.35L297.18 230.51L297.22 231.64L297.26 232.75L297.3 233.84L297.33 234.91L297.37 235.96L297.42 236.98L297.46 237.98L297.5 238.95L297.55 239.91L297.59 240.84L297.64 241.74L297.69 242.62L297.74 243.48L297.8 244.31L297.85 245.12L297.91 245.91L297.97 246.67L298.04 247.4L298.1 248.11L298.17 248.8L298.25 249.45L298.32 250.09L298.4 250.69L298.48 251.27L298.57 251.82L298.66 252.35L298.76 252.85L298.85 253.32L298.96 253.77L299.06 254.18L299.18 254.57L299.29 254.94L299.41 255.27L299.54 255.57L299.6 255.73L299.66 255.88L299.7 256.03L299.74 256.18L299.76 256.34L299.79 256.49L299.8 256.64L299.8 256.79L299.8 256.94L299.79 257.09L299.77 257.24L299.74 257.38L299.71 257.53L299.67 257.67L299.63 257.81L299.57 257.94L299.52 258.08L299.45 258.21L299.38 258.33L299.3 258.46L299.22 258.58L299.13 258.69L299.04 258.81L298.94 258.91L298.83 259.02L298.73 259.11L298.61 259.21L298.49 259.29L298.37 259.37L298.24 259.45L298.11 259.52L297.98 259.58L297.84 259.64L297.69 259.69L297.55 259.73L297.4 259.77L297.25 259.8L297.09 259.82L296.93 259.83L296.77 259.83L296.68 259.83L296.6 259.83L296.51 259.82L296.42 259.81L296.34 259.8L296.25 259.79L296.17 259.77L296.08 259.75L296 259.73L295.92 259.71L295.83 259.68L295.75 259.66L295.67 259.63L295.59 259.59L295.51 259.56L295.44 259.52L295.36 259.48L295.28 259.44L295.21 259.4L295.13 259.35L295.06 259.31L294.99 259.26L294.92 259.21L294.85 259.15L294.79 259.1L294.72 259.04L294.66 258.98L294.6 258.92L294.54 258.85L294.48 258.79L294.42 258.72L294.37 258.65L294.31 258.58L294.26 258.5L294.21 258.43L294.16 258.35L294.12 258.27L294.08 258.19L294.04 258.11L294 258.03L293.84 257.68L293.7 257.33L293.55 256.97L293.41 256.62L293.27 256.27L293.14 255.91L293.01 255.56L292.88 255.2L292.76 254.84L292.64 254.48L292.53 254.12L292.42 253.76L292.31 253.4L292.21 253.04L292.11 252.68L292.01 252.31L291.92 251.95L291.84 251.58L291.75 251.21L291.67 250.84L291.6 250.48L291.52 250.11L291.46 249.74L291.39 249.37L291.33 248.99L291.27 248.62L291.22 248.25L291.17 247.87L291.13 247.5L291.09 247.12L291.05 246.75L291.02 246.37L290.99 245.99L290.96 245.62L290.94 245.24L290.92 244.86L290.91 244.48L290.9 244.1L290.89 243.72L290.89 243.34L290.89 222.04L290.89 221.98L290.89 221.92L290.9 221.86L290.9 221.8L290.91 221.75L290.91 221.69L290.92 221.63L290.93 221.57L290.94 221.52L290.95 221.46L290.96 221.4L290.97 221.34L290.99 221.29L291 221.23L291.02 221.18L291.03 221.12L291.05 221.07L291.07 221.01L291.09 220.96L291.11 220.9L291.13 220.85L291.16 220.8L291.18 220.74L291.21 220.69L291.23 220.64L291.26 220.59L291.29 220.54L291.32 220.49L291.35 220.44L291.38 220.39L291.41 220.34L291.44 220.29L291.48 220.25L291.51 220.2L291.55 220.15L291.59 220.11L291.62 220.06L291.66 220.02L291.7 219.98L291.74 219.93L291.99 219.65L292.23 219.37L292.48 219.11L292.72 218.85L292.95 218.6L293.18 218.36L293.41 218.13L293.64 217.9L293.86 217.68L294.08 217.47L294.3 217.26L294.5 217.05L294.71 216.85L294.91 216.66L295.11 216.47L295.3 216.28L295.48 216.09L295.66 215.91L295.83 215.73L296 215.55L296.16 215.37L296.31 215.19L296.46 215.01L296.6 214.83L296.74 214.64L296.86 214.46L296.98 214.27L297.1 214.09L297.2 213.89L297.3 213.7L297.38 213.5L297.46 213.3L297.53 213.09L297.6 212.88L297.65 212.66L297.69 212.43L297.73 212.2L297.75 211.96L297.77 211.71L297.77 211.46L297.76 211.07L297.72 210.7L297.66 210.34L297.58 210L297.48 209.67L297.35 209.36L297.21 209.06L297.06 208.77L296.88 208.49L296.7 208.23L296.5 207.97L296.29 207.72L296.06 207.48L295.83 207.25L295.6 207.03L295.35 206.81L295.1 206.6L294.85 206.4L294.59 206.19L294.33 206L294.07 205.8L293.82 205.61L293.56 205.42L293.31 205.23L293.07 205.04L292.83 204.85L292.6 204.66L292.38 204.47L292.17 204.27L291.97 204.07L291.78 203.87L291.61 203.66L291.45 203.45L291.31 203.23L291.19 203.01L291.08 202.78L291 202.54L290.94 202.29L290.9 202.03L290.89 201.76L290.89 167.48L290.9 166.49L290.93 165.5L290.97 164.51L291.04 163.53L291.12 162.54L291.21 161.56L291.33 160.59L291.46 159.62L291.61 158.65L291.78 157.68L291.97 156.72L292.17 155.76L292.39 154.81L292.63 153.86L292.88 152.92L293.15 151.98L293.44 151.05L293.74 150.12L294.06 149.2L294.4 148.28L294.75 147.37L295.12 146.47L295.5 145.57L295.91 144.68L296.32 143.8L296.76 142.92L297.21 142.06L297.67 141.2L298.15 140.35L298.65 139.5L299.16 138.67L299.69 137.84L300.24 137.02L300.79 136.21L301.37 135.41L301.96 134.62L302.56 133.84L303.18 133.07L303.82 132.31L304.46 131.56L313.21 121.65L313.57 121.25L313.94 120.88L314.33 120.53L314.73 120.2L315.14 119.89L315.56 119.6L316 119.33L316.43 119.08L316.88 118.86L317.34 118.65L317.8 118.46L318.27 118.3L318.74 118.15L319.22 118.03L319.7 117.92L320.19 117.84L320.68 117.78L321.17 117.74L321.66 117.71L322.15 117.71L322.64 117.73L323.13 117.77Z" id="a1US3BifPd"></path></defs><g><g><use xlink:href="#a2Ds2QJhaY" opacity="1" fill="#38393a" fill-opacity="1"></use><g><use xlink:href="#a2Ds2QJhaY" opacity="1" fill-opacity="0" stroke="#38393a" stroke-width="1" stroke-opacity="1"></use></g></g><g><use xlink:href="#a1jcqvndVC" opacity="1" fill="#ffffff" fill-opacity="1"></use><g><use xlink:href="#a1jcqvndVC" opacity="1" fill-opacity="0" stroke="#38393a" stroke-width="3" stroke-opacity="1"></use></g></g><g><g><use xlink:href="#a3Ar2LF6a" opacity="1" fill-opacity="0" stroke="#000000" stroke-width="1" stroke-opacity="1"></use></g></g><g><use xlink:href="#b2IfnKHuV3" opacity="1" fill="#f05440" fill-opacity="0.99"></use></g><g><use xlink:href="#b8u1NOUiO" opacity="1" fill="#08a808" fill-opacity="0.99"></use></g><g><use xlink:href="#a3H4tMgckW" opacity="1" fill="#38393a" fill-opacity="0.99"></use></g><g><use xlink:href="#fQQoEhFo" opacity="1" fill="#38393a" fill-opacity="0.99"></use></g><g><use xlink:href="#a1US3BifPd" opacity="1" fill="#9c9c9c" fill-opacity="1"></use><g><use xlink:href="#a1US3BifPd" opacity="1" fill-opacity="0" stroke="#000000" stroke-width="1" stroke-opacity="0"></use></g></g></g></svg>