<?xml version="1.0" encoding="UTF-8" standalone="no"?>
<!DOCTYPE svg PUBLIC "-//W3C//DTD SVG 1.1//EN" "http://www.w3.org/Graphics/SVG/1.1/DTD/svg11.dtd">
<svg version="1.1" xmlns="http://www.w3.org/2000/svg" xmlns:xlink="http://www.w3.org/1999/xlink" preserveAspectRatio="xMidYMid meet" viewBox="0 0 512 512" width="512" height="512"><defs><path d="M170.45 60.05C164.43 60.88 160.67 61.4 159.16 61.61C135.97 64.83 116.06 79.75 106.46 101.11C106.46 101.11 106.46 101.11 106.46 101.11L106.46 468.45L115.1 468.45C115.41 467.69 115.61 467.21 115.69 467.02C124.77 445.04 146.2 430.71 169.98 430.71C169.98 430.71 161.44 430.71 169.13 430.71C169.13 430.71 170.83 430.71 170.83 430.71C202.96 430.68 283.27 430.61 411.78 430.49L411.78 60.11L170.45 60.05Z" id="ccwgYyGht"></path><path d="M169.38 66.79C165.19 67.51 162.57 67.96 161.52 68.14C139.93 71.85 121.48 85.78 112 105.52C112 105.52 112 105.52 112 105.52L112.48 454.95C116.73 449.62 119.38 446.29 120.44 444.96C132.32 430.07 150.33 421.4 169.38 421.4C169.38 421.4 169.38 421.4 169.38 421.4L400 421.4L400 66.79L169.38 66.79Z" id="fnslOrqKL"></path><path d="M169.98 237.5L169.98 225.03L353.87 225.03L353.87 237.5L169.98 237.5ZM169.98 214.92L169.98 202.44L353.87 202.44L353.87 214.92L169.98 214.92ZM169.98 191.74L169.98 179.26L353.87 179.26L353.87 191.74L169.98 191.74Z" id="e49EcKBHiz"></path><path d="M169.98 305.85L169.98 293.37L353.87 293.37L353.87 305.85L169.98 305.85ZM169.98 283.27L169.98 270.79L353.87 270.79L353.87 283.27L169.98 283.27ZM169.98 260.09L169.98 247.61L353.87 247.61L353.87 260.09L169.98 260.09Z" id="cRO2C56l"></path><path d="M169.98 161.9L169.98 149.42L353.87 149.42L353.87 161.9L169.98 161.9ZM169.98 139.32L169.98 126.84L353.87 126.84L353.87 139.32L169.98 139.32ZM169.98 116.14L169.98 103.66L353.87 103.66L353.87 116.14L169.98 116.14Z" id="a29YTMIasc"></path><path d="M169.98 382.52L169.98 370.05L353.87 370.05L353.87 382.52L169.98 382.52ZM169.98 359.94L169.98 347.46L353.87 347.46L353.87 359.94L169.98 359.94ZM169.98 336.76L169.98 324.28L353.87 324.28L353.87 336.76L169.98 336.76Z" id="c73Mp37mC"></path><path d="M385.15 170.24C385.94 170.89 389.91 174.13 397.05 179.97C397.05 224.99 397.05 250 397.05 255.01C397.05 266.76 393.32 278.21 386.39 287.71C384.79 289.89 376.82 300.82 362.46 320.49L351.29 335.79C330.98 307.28 319.69 291.44 317.44 288.27C310.74 278.88 307.14 267.63 307.14 256.09C307.14 253.72 307.14 241.9 307.14 220.61C311.62 215.97 314.1 213.4 314.6 212.89C320.4 206.88 319.83 197.2 313.37 191.92C312.95 191.58 310.88 189.88 307.14 186.82C307.14 152.55 307.14 133.52 307.14 129.71C307.14 108.9 314.74 88.81 328.5 73.2C329.95 71.55 341.6 58.34 343.06 56.68C348.89 50.08 359.23 50.26 364.82 57.03C364.85 57.06 364.87 57.09 364.9 57.13C366.21 58.74 376.65 71.61 377.96 73.22C390.31 88.44 397.05 107.45 397.05 127.06C397.05 127.63 397.05 130.51 397.05 135.68L383.93 149.27C380.44 159.73 380.85 166.72 385.15 170.24Z" id="b4orSf4ou"></path><path d="M385.15 169.87C385.94 170.51 389.91 173.76 397.05 179.6C397.05 224.62 397.05 249.63 397.05 254.63C397.05 266.38 393.32 277.84 386.39 287.33C384.79 289.52 376.82 300.45 362.46 320.12C348.69 300.78 341.03 290.04 339.5 287.89C332.81 278.5 329.21 267.25 329.21 255.71C329.21 253.35 329.21 241.52 329.21 220.23C333.69 215.6 336.17 213.03 336.67 212.51C342.47 206.51 341.9 196.83 335.44 191.54C335.02 191.2 332.95 189.5 329.21 186.45C329.21 152.18 329.21 133.14 329.21 129.33C329.21 108.53 336.8 88.44 350.56 72.83C351.99 71.21 363.4 58.28 364.82 56.66C364.85 56.68 364.88 56.72 364.9 56.75C366.21 58.36 376.66 71.23 377.96 72.84C390.31 88.07 397.05 107.07 397.05 126.68C397.05 127.26 397.05 130.13 397.05 135.31L383.93 148.9C380.44 159.35 380.85 166.34 385.15 169.87Z" id="b1aulTR4C4"></path><path d="M379.26 328.37C377.78 329.85 370.41 337.28 357.15 350.65L357.15 205.24C370.85 195.24 378.46 189.69 379.98 188.58C382.23 186.93 382.73 183.77 381.08 181.52C379.44 179.27 376.28 178.78 374.03 180.42C372.9 181.24 367.28 185.35 357.15 192.74C357.15 132.06 357.15 98.34 357.15 91.6C357.15 88.81 354.89 86.55 352.1 86.55C349.31 86.55 347.05 88.81 347.05 91.6C347.05 93.75 347.05 104.52 347.05 123.89C339.97 117.6 336.04 114.11 335.26 113.41C333.17 111.56 329.98 111.74 328.13 113.83C326.28 115.91 326.46 119.1 328.55 120.96C330.37 122.57 344.91 135.5 346.72 137.11C346.83 137.21 346.94 137.29 347.05 137.37C347.05 143.73 347.05 175.53 347.05 232.78C340.82 227.03 337.36 223.84 336.67 223.2C334.62 221.31 331.43 221.44 329.54 223.48C327.65 225.53 327.77 228.73 329.82 230.62C330.97 231.68 336.71 236.98 347.05 246.52L347.05 351.02C334.27 338.73 327.17 331.9 325.76 330.53C323.75 328.6 320.55 328.66 318.62 330.67C316.68 332.67 316.74 335.87 318.75 337.8C320.64 339.62 330.07 348.7 347.05 365.04C347.05 375.06 347.05 380.62 347.05 381.74C347.05 384.53 349.31 386.79 352.1 386.79C354.89 386.79 357.15 384.53 357.15 381.74C357.15 380.62 357.15 375.04 357.15 364.99C374.71 347.28 384.47 337.45 386.42 335.48C388.39 333.5 388.38 330.3 386.4 328.34C384.42 326.38 381.22 326.39 379.26 328.37Z" id="d2U27Z3zUl"></path></defs><g><g><use xlink:href="#ccwgYyGht" opacity="1" fill="#ffffff" fill-opacity="1"></use><g><use xlink:href="#ccwgYyGht" opacity="1" fill-opacity="0" stroke="#38393a" stroke-width="3" stroke-opacity="1"></use></g></g><g><use xlink:href="#fnslOrqKL" opacity="1" fill="#ffffff" fill-opacity="1"></use><g><use xlink:href="#fnslOrqKL" opacity="1" fill-opacity="0" stroke="#38393a" stroke-width="3" stroke-opacity="1"></use></g></g><g><use xlink:href="#e49EcKBHiz" opacity="1" fill="#f05440" fill-opacity="0.99"></use></g><g><use xlink:href="#cRO2C56l" opacity="1" fill="#08a808" fill-opacity="0.99"></use></g><g><use xlink:href="#a29YTMIasc" opacity="1" fill="#38393a" fill-opacity="0.99"></use></g><g><use xlink:href="#c73Mp37mC" opacity="1" fill="#38393a" fill-opacity="0.99"></use></g><g><use xlink:href="#b4orSf4ou" opacity="1" fill="#99d3ff" fill-opacity="1"></use><g><use xlink:href="#b4orSf4ou" opacity="1" fill-opacity="0" stroke="#000000" stroke-width="1" stroke-opacity="0"></use></g></g><g><use xlink:href="#b1aulTR4C4" opacity="1" fill="#cce9ff" fill-opacity="1"></use><g><use xlink:href="#b1aulTR4C4" opacity="1" fill-opacity="0" stroke="#000000" stroke-width="1" stroke-opacity="0"></use></g></g><g><use xlink:href="#d2U27Z3zUl" opacity="1" fill="#66bdff" fill-opacity="1"></use><g><use xlink:href="#d2U27Z3zUl" opacity="1" fill-opacity="0" stroke="#000000" stroke-width="1" stroke-opacity="0"></use></g></g></g></svg>